<svg width="40" height="40" viewBox="0 0 40 40" fill="black" xmlns="http://www.w3.org/2000/svg">
<path d="M20.0003 37.2728C29.5397 37.2728 37.273 29.5395 37.273 20C37.273 10.4606 29.5397 2.72729 20.0003 2.72729C10.4608 2.72729 2.72754 10.4606 2.72754 20C2.72754 29.5395 10.4608 37.2728 20.0003 37.2728Z" stroke="white" stroke-width="2" stroke-linecap="round" stroke-linejoin="round"/>
<path d="M25.0914 14.547C24.762 13.9758 24.2834 13.505 23.707 13.1848C23.1305 12.8646 22.4777 12.7072 21.8186 12.7294H18.1823C17.2178 12.7294 16.2929 13.1124 15.611 13.7941C14.929 14.4759 14.5459 15.4005 14.5459 16.3647C14.5459 17.3288 14.929 18.2535 15.611 18.9353C16.2929 19.617 17.2178 20 18.1823 20H21.8186C22.783 20 23.708 20.383 24.3899 21.0648C25.0719 21.7465 25.455 22.6712 25.455 23.6354C25.455 24.5995 25.0719 25.5242 24.3899 26.2059C23.708 26.8877 22.783 27.2707 21.8186 27.2707H18.1823C17.5232 27.2929 16.8704 27.1354 16.2939 26.8153C15.7174 26.4951 15.2389 26.0242 14.9095 25.453" stroke="white" stroke-width="2.75" stroke-linecap="round" stroke-linejoin="round"/>
<path d="M20 8.18176V12.1212M20 27.8787V31.8181" stroke="white" stroke-width="2.75" stroke-linecap="round" stroke-linejoin="round"/>
</svg>
